
<meta http-equiv="Content-Type" content="text/html; charset=utf-8">
<svg width="24" height="24" viewBox="0 0 24 24" fill="none" xmlns="http://www.w3.org/2000/svg">
<path d="M17.0027 12.4375C17.0027 10.5549 18.0864 8.92928 19.6617 8.13844C18.2555 6.8214 16.4486 6.75 16.1276 6.75C15.2742 6.75 14.6652 6.98114 14.0768 7.20459C13.5068 7.4212 12.9683 7.62543 12.1893 7.62543C11.4103 7.62543 10.8718 7.4212 10.3018 7.20459C9.71335 6.98114 9.10441 6.75 8.25103 6.75C7.71345 6.75 3 6.92175 3 12.8754C3 17.7439 6.32249 22.5 8.25103 22.5C9.43174 22.5 10.1108 22.224 10.7103 21.9805C11.1787 21.7903 11.5838 21.6259 12.1893 21.6259C12.7948 21.6259 13.1999 21.7903 13.6683 21.9809C14.2678 22.224 14.9469 22.5 16.1271 22.5C17.4783 22.5 19.4022 20.1629 20.5 17.091C18.4277 16.5541 17.0027 14.6772 17.0027 12.4375Z" fill="#4E4B66"/>
<path d="M11.7522 6.75C14.3156 6.225 16.1531 4.11198 16.1275 1.5C13.5641 2.025 11.7266 4.13802 11.7522 6.75Z" fill="#4E4B66"/>
</svg>
