<?xml version="1.0" encoding="UTF-8"?>
<svg width="108px" height="30px" viewBox="0 0 108 30" version="1.1" xmlns="http://www.w3.org/2000/svg" xmlns:xlink="http://www.w3.org/1999/xlink">
    <!-- Generator: Sketch 50.2 (55047) - http://www.bohemiancoding.com/sketch -->
    <title>Group 3</title>
    <desc>Created with Sketch.</desc>
    <defs></defs>
    <g id="Page-1" stroke="none" stroke-width="1" fill="none" fill-rule="evenodd">
        <g id="Veriff_main-Copy-6" transform="translate(-29.000000, -21.000000)">
            <g id="Group-3" transform="translate(29.000000, 21.000000)">
                <polygon id="Clip-6564" fill="#2BD9F8" points="3.13940217 13 9.4753045 24.0529243 12.6723456 18.4762324 18.9511297 18.4762324 12.6146965 29.5294973 6.33642641 29.5294973 0 18.4762324"></polygon>
                <polygon id="Clip-6567" fill="#231F20" points="20.1965002 26.5294973 26.5323923 15.4762324 20.1388848 15.4762324 17 10 29.6723254 10 32.8112102 15.4762324 26.4752842 26.5294973"></polygon>
                <polygon id="Clip-6570" fill="#231F20" points="21.95115 5.47657297 9.27879081 5.47657297 12.475832 11.0532649 9.33643994 16.5298378 3 5.47657297 6.13940217 0 18.8117241 0"></polygon>
                <path d="M46,10.1549255 C46,9.94344983 47.3452364,9.95332551 47.4505263,10.1549255 L49.9199375,17.1516715 L52.3898558,10.1549255 C52.4951458,9.95332551 53.8403821,9.94344983 53.8403821,10.1549255 L50.7397384,18.9296336 C50.687364,19.0460985 50.351038,19.0883255 49.9199375,19.0883255 C49.4783215,19.0883255 49.1530182,19.0460985 49.1001027,18.9296336 L46,10.1549255 Z" id="Clip-6573" fill="#2BD9F8"></path>
                <path d="M59,10.1168054 C59,10.0429081 59.304881,10.0112378 59.6307254,10 L64.5176804,10 C64.8958654,10 64.8958654,11.2494432 64.5176804,11.2494432 L60.3766813,11.2494432 L60.3766813,13.9063405 L64.0336306,13.9063405 C64.4123566,13.9063405 64.4123566,15.1551027 64.0336306,15.1551027 L60.3766813,15.1551027 L60.3766813,17.8433297 L64.5176804,17.8433297 C64.8958654,17.8433297 64.8958654,19.092773 64.5176804,19.092773 L59.6307254,19.092773 C59.304881,19.092773 59,19.0498649 59,18.9759676 L59,10.1168054 Z" id="Clip-6576" fill="#2BD9F8"></path>
                <path d="M72.3766475,11.3761243 L72.3766475,14.4668703 L74.7517576,14.4668703 C75.5925219,14.477427 76.2127656,13.5671622 76.2127656,12.9003838 C76.2127656,12.2332649 75.5820402,11.3761243 74.7517576,11.3761243 L72.3766475,11.3761243 Z M74.226356,16.0016865 C74.163466,15.8750054 74.0477282,15.7156324 73.8271738,15.7156324 L72.3766475,15.7156324 L72.3766475,18.9759676 C72.3766475,19.1343189 71,19.1343189 71,18.9759676 L71,10.1266811 C71,10.0633405 71.2839177,10.0105568 71.6621365,10 L74.7517576,10 C76.2546584,10.0105568 77.5789652,11.3972378 77.5789652,12.9003838 C77.5789652,14.0963622 76.7486488,15.3345676 75.655919,15.6100649 L77.5789652,18.9545135 C77.5789652,19.1554324 76.0446195,19.1455568 75.9398367,18.9439568 L74.226356,16.0016865 Z" id="Clip-6579" fill="#2BD9F8"></path>
                <path d="M83,10.1192743 C83,9.96024189 84.3766813,9.96024189 84.3766813,10.1192743 L84.3766813,18.9784365 C84.3766813,19.1374689 83,19.1374689 83,18.9784365 L83,10.1192743 Z" id="Clip-6582" fill="#2BD9F8"></path>
                <path d="M90,10.1168054 C90,10.0429081 90.304881,10.0112378 90.6202437,10 L95.5066577,10 C95.8854175,10 95.8854175,11.2494432 95.5066577,11.2494432 L91.3661997,11.2494432 L91.3661997,13.9063405 L95.02369,13.9063405 C95.4019088,13.9063405 95.4019088,15.1551027 95.02369,15.1551027 L91.3661997,15.1551027 L91.3661997,18.9759676 C91.3661997,19.135 90,19.135 90,18.9759676 L90,10.1168054 Z" id="Clip-6585" fill="#2BD9F8"></path>
                <path d="M102,10.1168054 C102,10.0429081 102.304881,10.0112378 102.620244,10 L107.507199,10 C107.885418,10 107.885418,11.2494432 107.507199,11.2494432 L103.3662,11.2494432 L103.3662,13.9063405 L107.02369,13.9063405 C107.401909,13.9063405 107.401909,15.1551027 107.02369,15.1551027 L103.3662,15.1551027 L103.3662,18.9759676 C103.3662,19.135 102,19.135 102,18.9759676 L102,10.1168054 Z" id="Clip-6588" fill="#2BD9F8"></path>
            </g>
        </g>
    </g>
</svg>