<?xml version="1.0" encoding="UTF-8"?>
<svg width="21px" height="21px" viewBox="0 0 21 21" version="1.1" xmlns="http://www.w3.org/2000/svg" xmlns:xlink="http://www.w3.org/1999/xlink">
    <!-- Generator: Sketch 42 (36781) - http://www.bohemiancoding.com/sketch -->
    <title>iOSSpinnerDark Copy</title>
    <desc>Created with Sketch.</desc>
    <defs></defs>
    <g id="Web-App-Mar-2017" stroke="none" stroke-width="1" fill="none" fill-rule="evenodd">
        <g id="Chats-New-Chat" transform="translate(-1032.000000, -142.000000)" fill="#000000">
            <g id="iOSSpinnerDark-Copy" transform="translate(1028.000000, 138.000000)">
                <path d="M14.79,9.86 L14.79,9.86 C14.3115,9.86 13.92,9.4685 13.92,8.99 L13.92,5.51 C13.92,5.0315 14.3115,4.64 14.79,4.64 L14.79,4.64 C15.2685,4.64 15.66,5.0315 15.66,5.51 L15.66,8.99 C15.66,9.4685 15.2685,9.86 14.79,9.86" id="Fill-2" opacity="0.65"></path>
                <path d="M17.255,10.520504 L17.255,10.520504 C16.84059,10.281254 16.69733,9.746494 16.93658,9.332084 L18.67658,6.318404 C18.91583,5.903994 19.45059,5.760734 19.865,5.999984 L19.865,5.999984 C20.27941,6.239234 20.42267,6.773994 20.18342,7.188404 L18.44342,10.202084 C18.20417,10.616494 17.66941,10.759754 17.255,10.520504" id="Fill-4" opacity="0.75"></path>
                <path d="M19.059496,12.325 L19.059496,12.325 C18.820246,11.91059 18.963506,11.37583 19.377916,11.13658 L22.391596,9.39658 C22.806006,9.15733 23.340766,9.30059 23.580016,9.715 L23.580016,9.715 C23.819266,10.12941 23.676006,10.66417 23.261596,10.90342 L20.247916,12.64342 C19.833506,12.88267 19.298746,12.73941 19.059496,12.325" id="Fill-6" opacity="0.85"></path>
                <path d="M19.72,14.79 L19.72,14.79 C19.72,14.3115 20.1115,13.92 20.59,13.92 L24.07,13.92 C24.5485,13.92 24.94,14.3115 24.94,14.79 L24.94,14.79 C24.94,15.2685 24.5485,15.66 24.07,15.66 L20.59,15.66 C20.1115,15.66 19.72,15.2685 19.72,14.79" id="Fill-8" opacity="0.9"></path>
                <path d="M19.059496,17.255 L19.059496,17.255 C19.298746,16.84059 19.833506,16.69733 20.247916,16.93658 L23.261596,18.67658 C23.676006,18.91583 23.819266,19.45059 23.580016,19.865 L23.580016,19.865 C23.340766,20.27941 22.806006,20.42267 22.391596,20.18342 L19.377916,18.44342 C18.963506,18.20417 18.820246,17.66941 19.059496,17.255" id="Fill-10" opacity="0.2"></path>
                <path d="M17.255,19.059496 L17.255,19.059496 C17.66941,18.820246 18.20417,18.963506 18.44342,19.377916 L20.18342,22.391596 C20.42267,22.806006 20.27941,23.340766 19.865,23.580016 L19.865,23.580016 C19.45059,23.819266 18.91583,23.676006 18.67658,23.261596 L16.93658,20.247916 C16.69733,19.833506 16.84059,19.298746 17.255,19.059496" id="Fill-12" opacity="0.25"></path>
                <path d="M14.79,19.72 L14.79,19.72 C15.2685,19.72 15.66,20.1115 15.66,20.59 L15.66,24.07 C15.66,24.5485 15.2685,24.94 14.79,24.94 L14.79,24.94 C14.3115,24.94 13.92,24.5485 13.92,24.07 L13.92,20.59 C13.92,20.1115 14.3115,19.72 14.79,19.72" id="Fill-14" opacity="0.3"></path>
                <path d="M12.325,19.059496 L12.325,19.059496 C12.73941,19.298746 12.88267,19.833506 12.64342,20.247916 L10.90342,23.261596 C10.66417,23.676006 10.12941,23.819266 9.715,23.580016 L9.715,23.580016 C9.30059,23.340766 9.15733,22.806006 9.39658,22.391596 L11.13658,19.377916 C11.37583,18.963506 11.91059,18.820246 12.325,19.059496" id="Fill-16" opacity="0.35"></path>
                <path d="M10.520504,17.255 L10.520504,17.255 C10.759754,17.66941 10.616494,18.20417 10.202084,18.44342 L7.188404,20.18342 C6.773994,20.42267 6.239234,20.27941 5.999984,19.865 L5.999984,19.865 C5.760734,19.45059 5.903994,18.91583 6.318404,18.67658 L9.332084,16.93658 C9.746494,16.69733 10.281254,16.84059 10.520504,17.255" id="Fill-18" opacity="0.4"></path>
                <path d="M9.86,14.79 L9.86,14.79 C9.86,15.2685 9.4685,15.66 8.99,15.66 L5.51,15.66 C5.0315,15.66 4.64,15.2685 4.64,14.79 L4.64,14.79 C4.64,14.3115 5.0315,13.92 5.51,13.92 L8.99,13.92 C9.4685,13.92 9.86,14.3115 9.86,14.79" id="Fill-20" opacity="0.45"></path>
                <path d="M10.520504,12.325 L10.520504,12.325 C10.281254,12.73941 9.746494,12.88267 9.332084,12.64342 L6.318404,10.90342 C5.903994,10.66417 5.760734,10.12941 5.999984,9.715 L5.999984,9.715 C6.239234,9.30059 6.773994,9.15733 7.188404,9.39658 L10.202084,11.13658 C10.616494,11.37583 10.759754,11.91059 10.520504,12.325" id="Fill-22" opacity="0.5"></path>
                <path d="M12.325,10.520504 L12.325,10.520504 C11.91059,10.759754 11.37583,10.616494 11.13658,10.202084 L9.39658,7.188404 C9.15733,6.773994 9.30059,6.239234 9.715,5.999984 L9.715,5.999984 C10.12941,5.760734 10.66417,5.903994 10.90342,6.318404 L12.64342,9.332084 C12.88267,9.746494 12.73941,10.281254 12.325,10.520504" id="Fill-24" opacity="0.55"></path>
            </g>
        </g>
    </g>
</svg>