<?xml version="1.0" encoding="utf-8"?>
<!-- Generator: Adobe Illustrator 16.0.0, SVG Export Plug-In . SVG Version: 6.00 Build 0)  -->
<!DOCTYPE svg PUBLIC "-//W3C//DTD SVG 1.1//EN" "http://www.w3.org/Graphics/SVG/1.1/DTD/svg11.dtd">
<svg version="1.1" id="Слой_1" xmlns="http://www.w3.org/2000/svg" xmlns:xlink="http://www.w3.org/1999/xlink" x="0px" y="0px"
	 width="260px" height="220px" viewBox="0 0 260 220" enable-background="new 0 0 260 220" xml:space="preserve">
<path fill="#6ABD45" stroke="#6ABD45" stroke-width="0.5" d="M222.631,16.1c0-6.75,4.629-12.23,10.35-12.23
	c5.723,0,10.352,5.48,10.352,12.23s-4.629,12.22-10.352,12.22C227.26,28.32,222.631,22.85,222.631,16.1L222.631,16.1z
	 M225.711,28.32h1.209c1.781,1.18,3.85,1.88,6.061,1.88c2.209,0,4.279-0.7,6.063-1.88h1.209c2.521,0,4.711,1.33,5.898,3.289h2.109
	c-1.199-2.76-3.869-4.779-7.059-5.109c2.439-2.59,3.969-6.28,3.969-10.4c0-7.79-5.459-14.1-12.189-14.1
	c-6.738,0-12.188,6.31-12.188,14.1c0,4.12,1.527,7.81,3.969,10.4c-4.367,0.46-7.76,4.04-7.76,8.4v5.64c0,4.67,3.898,8.46,8.711,8.46
	h13.852v-1.88h-13.852c-3.771,0-6.83-2.95-6.83-6.58V34.9C218.881,31.27,221.939,28.32,225.711,28.32L225.711,28.32z
	 M250.881,40.971V35.38h-1.961v5.591h-5.59v1.949h5.59v5.6h1.961v-5.6h5.59v-1.949H250.881L250.881,40.971z"/>
<path fill="#333333" stroke="#333333" stroke-width="0.5" d="M190.5,141.85c-1.32,0-2.38-1.06-2.38-2.369
	c0-1.311,1.06-2.381,2.38-2.381s2.38,1.07,2.38,2.381C192.88,140.79,191.82,141.85,190.5,141.85L190.5,141.85z M190.5,136.42
	c-1.7,0-3.07,1.37-3.07,3.061c0,1.682,1.37,3.049,3.07,3.049c1.689,0,3.07-1.367,3.07-3.049
	C193.57,137.79,192.189,136.42,190.5,136.42L190.5,136.42z M198.32,140.5c0,0.37-0.313,0.68-0.68,0.68H196
	c-0.1,0.34-0.25,0.66-0.41,0.98l1.16,1.16c0.26,0.26,0.26,0.688,0,0.959l-1.439,1.441c-0.271,0.26-0.701,0.26-0.961,0l-1.16-1.16
	c-0.31,0.17-0.64,0.317-0.987,0.43v1.609c0,0.381-0.312,0.68-0.683,0.68h-2.039c-0.371,0-0.681-0.299-0.681-0.68v-1.609
	c-0.35-0.11-0.68-0.26-0.989-0.43l-1.16,1.147c-0.26,0.271-0.688,0.271-0.961,0l-1.438-1.433c-0.271-0.27-0.271-0.697,0-0.959
	l1.16-1.158c-0.16-0.32-0.313-0.643-0.41-0.979h-1.643c-0.379,0-0.68-0.312-0.68-0.682v-2.04c0-0.37,0.301-0.683,0.68-0.683H185
	c0.1-0.34,0.25-0.657,0.41-0.979l-1.16-1.158c-0.27-0.262-0.27-0.689,0-0.961l1.439-1.431c0.271-0.271,0.701-0.271,0.961,0
	l1.147,1.142c0.32-0.17,0.649-0.32,1-0.42v-1.611c0-0.379,0.312-0.68,0.683-0.68h2.039c0.371,0,0.681,0.301,0.681,0.68v1.611
	c0.35,0.1,0.68,0.25,1,0.42l1.149-1.15c0.26-0.26,0.688-0.26,0.961,0l1.438,1.439c0.271,0.271,0.271,0.699,0,0.961l-1.16,1.158
	c0.16,0.32,0.313,0.641,0.41,0.979h1.643c0.367,0,0.68,0.313,0.68,0.683V140.5L198.32,140.5z M197.891,137.1h-1.398
	c-0.021-0.06-0.04-0.107-0.063-0.17l0.99-0.979c0.43-0.432,0.45-1.11,0.051-1.5l-1.921-1.932c-0.399-0.398-1.079-0.369-1.51,0.062
	l-0.979,0.979c-0.061-0.021-0.121-0.041-0.17-0.069V132.1c0-0.607-0.461-1.1-1.031-1.1h-2.719c-0.57,0-1.031,0.49-1.031,1.1v1.393
	c-0.049,0.027-0.107,0.05-0.17,0.068l-0.979-0.979c-0.432-0.432-1.109-0.45-1.51-0.063l-1.932,1.933
	c-0.391,0.397-0.369,1.067,0.062,1.5l0.989,0.979c-0.021,0.062-0.041,0.109-0.062,0.17h-1.399c-0.618,0-1.108,0.461-1.108,1.021
	v2.72c0,0.563,0.49,1.021,1.108,1.021h1.399c0.021,0.061,0.04,0.111,0.062,0.17l-0.989,0.98c-0.431,0.43-0.45,1.108-0.052,1.5
	l1.922,1.93c0.398,0.398,1.078,0.371,1.51-0.062l0.99-0.979c0.05,0.021,0.109,0.039,0.158,0.061v1.398
	c0,0.602,0.461,1.102,1.031,1.102h2.719c0.57,0,1.031-0.5,1.031-1.102v-1.398c0.049-0.021,0.108-0.04,0.158-0.061l0.99,0.979
	c0.432,0.433,1.102,0.46,1.51,0.062l1.922-1.92c0.398-0.399,0.379-1.08-0.052-1.51l-0.989-0.98c0.021-0.059,0.041-0.109,0.062-0.17
	h1.399c0.608,0,1.108-0.459,1.108-1.021v-2.72C199,137.561,198.5,137.1,197.891,137.1L197.891,137.1z"/>
<path fill="#2D88BA" stroke="#2D88BA" d="M152.8,144.029V135.8c0-1.659,1.32-3,2.95-3h12.5c1.63,0,2.95,1.341,2.95,3v8.229
	c0,2.201-2.261,2.371-2.95,2.371h-8.02l-4.23,3.8v-3.8h-0.25C155.061,146.4,152.8,146.23,152.8,144.029L152.8,144.029z M155.75,132
	c-2.07,0-3.75,1.7-3.75,3.8v8.229c0,1.91,1.391,2.961,3.2,3.131V152l5.329-4.8h7.721c2.068,0,3.75-1.07,3.75-3.171V135.8
	c0-2.1-1.682-3.8-3.75-3.8H155.75L155.75,132z"/>
<path fill="#2D88BA" d="M169,152c3.311,0,6-2.689,6-6s-2.689-6-6-6s-6,2.689-6,6S165.689,152,169,152z"/>
<path fill="#FFFFFF" stroke="#FFFFFF" d="M168.924,143.372c-0.119,0.007-0.213,0.101-0.213,0.213l0.007,2.608h-2.614
	c-0.112,0-0.207,0.093-0.207,0.205c0.002,0.111,0.096,0.205,0.205,0.205h2.617l-0.008,2.608c0.001,0.112,0.094,0.204,0.205,0.204
	c0.059,0,0.113-0.027,0.148-0.063s0.057-0.084,0.057-0.144l0.007-2.606h2.603c0.059,0,0.113-0.027,0.149-0.063
	c0.035-0.035,0.058-0.084,0.063-0.149c0-0.111-0.092-0.203-0.205-0.203l-2.609,0.008v-2.616
	C169.13,143.465,169.037,143.372,168.924,143.372L168.924,143.372z"/>
<path fill="#333333" d="M223.74,146.6l-4.35-4.33c0.947-1.188,1.52-2.688,1.52-4.328c0-3.83-3.11-6.939-6.96-6.939
	c-3.841,0-6.95,3.109-6.95,6.939c0,3.828,3.109,6.938,6.95,6.938c1.649,0,3.159-0.569,4.35-1.521l4.341,4.341
	c0.149,0.149,0.352,0.22,0.549,0.22c0.201,0,0.393-0.07,0.553-0.22C224.04,147.391,224.04,146.91,223.74,146.6L223.74,146.6z
	 M213.95,143.33c-2.979,0-5.4-2.41-5.4-5.391c0-2.979,2.421-5.399,5.4-5.399c2.989,0,5.409,2.42,5.409,5.399
	C219.359,140.92,216.939,143.33,213.95,143.33L213.95,143.33z"/>
<path fill="none" stroke="#333333" stroke-width="1.2" d="M234.52,141.71h-2.35c-0.369,0-0.67-0.3-0.67-0.67v-4.021
	c0-0.369,0.301-0.67,0.67-0.67h2.35"/>
<path fill="none" stroke="#333333" stroke-width="1.2" d="M234.381,141.521c-0.111-0.102-0.201-0.352-0.201-0.562v-3.851
	c0-0.221,0.09-0.471,0.201-0.569l4.26-4.229c0.539-0.562,1.25-0.34,1.25,0.471v12.38c0,0.88-0.641,1.21-1.27,0.569L234.381,141.521
	L234.381,141.521z"/>
<path fill="none" stroke="#333333" stroke-width="1.2" stroke-linecap="round" d="M241.461,137.16
	c0.83,0.221,1.449,0.971,1.449,1.869s-0.619,1.648-1.449,1.869"/>
<path fill="none" stroke="#333333" stroke-width="1.2" stroke-linecap="round" d="M242.881,135.063c1.42,0.76,2.379,2.25,2.379,3.97
	c0,1.71-0.959,3.2-2.369,3.96"/>
<path fill="none" stroke="#333333" stroke-width="1.2" stroke-linecap="round" d="M244.08,133.279
	c2.109,1.061,3.551,3.238,3.551,5.75c0,2.521-1.441,4.689-3.551,5.75"/>
<path fill="#FFFFFF" stroke="#F04F30" d="M129,176c3.869,0,7-3.13,7-7s-3.131-7-7-7c-3.87,0-7,3.13-7,7S125.13,176,129,176z"/>
<path fill="#F04F30" d="M128,172.141c0-0.111,0.04-0.221,0.07-0.33c0.04-0.101,0.11-0.181,0.18-0.25
	c0.07-0.068,0.18-0.141,0.29-0.181c0.1-0.04,0.21-0.069,0.35-0.069c0.15,0,0.25,0.029,0.36,0.069s0.22,0.11,0.279,0.181
	c0.08,0.08,0.15,0.149,0.181,0.25c0.04,0.109,0.08,0.219,0.08,0.33c0,0.109-0.04,0.219-0.08,0.33c-0.03,0.109-0.101,0.18-0.181,0.25
	c-0.069,0.069-0.169,0.149-0.279,0.18c-0.11,0.039-0.21,0.08-0.36,0.08c-0.14,0-0.24-0.041-0.35-0.08
	c-0.11-0.028-0.18-0.108-0.29-0.18c-0.07-0.07-0.14-0.141-0.18-0.25C128.04,172.359,128,172.29,128,172.141L128,172.141z
	 M129.5,170.471h-1.28L128.04,165h1.63L129.5,170.471L129.5,170.471z"/>
<path fill="none" stroke="#9A9A9A" stroke-width="0.7" stroke-linecap="round" d="M149.02,163v2.801 M152.949,164.43l-1.799,2.141
	 M155.029,168.051l-2.75,0.489 M154.311,172.17l-2.42-1.4 M151.109,174.85l-0.959-2.619 M146.93,174.85l0.951-2.619 M143.73,172.17
	l2.42-1.4 M143,168.051l2.75,0.489 M145.09,164.43l1.801,2.141"/>
<path fill="#FFFFFF" d="M71.502,161.148c-0.189-0.198-0.51-0.198-0.699,0l-4.48,4.479l-4.47-4.479c-0.2-0.198-0.51-0.198-0.71,0
	c-0.19,0.189-0.19,0.511,0,0.701l4.48,4.479l-4.48,4.48c-0.19,0.188-0.19,0.51,0,0.698c0.1,0.103,0.23,0.149,0.35,0.149
	c0.13,0,0.26-0.051,0.36-0.149l4.47-4.47l4.48,4.47c0.1,0.103,0.219,0.149,0.35,0.149c0.13,0,0.26-0.051,0.35-0.149
	c0.2-0.188,0.2-0.51,0-0.698l-4.47-4.48l4.47-4.479C71.703,161.659,71.703,161.34,71.502,161.148L71.502,161.148z"/>
<path fill="#2D88BA" stroke="#2D88BA" stroke-width="0.5" d="M77.55,148.4c0,1.539-1.28,2.8-2.85,2.8h-6.06
	c-1.58,0-2.86-1.261-2.86-2.8V146c0-1.54,1.28-2.8,2.86-2.8h0.49c0.75,0.51,1.61,0.8,2.54,0.8c0.92,0,1.78-0.29,2.53-0.8h0.5
	c1.57,0,2.85,1.26,2.85,2.8V148.4L77.55,148.4z M67.35,138c0-2.87,1.93-5.2,4.32-5.2c2.38,0,4.31,2.33,4.31,5.2s-1.93,5.2-4.31,5.2
	C69.28,143.2,67.35,140.87,67.35,138L67.35,138z M75.1,142.42c1.02-1.09,1.65-2.67,1.65-4.42c0-3.32-2.27-6-5.08-6
	s-5.09,2.68-5.09,6c0,1.75,0.64,3.33,1.65,4.42c-1.82,0.2-3.23,1.73-3.23,3.58v2.4c0,1.99,1.63,3.6,3.64,3.6h6.06
	c2.01,0,3.63-1.609,3.63-3.6V146C78.33,144.15,76.92,142.62,75.1,142.42L75.1,142.42z"/>
<path fill="#2D88BA" stroke="#2D88BA" stroke-width="0.5" d="M105.49,148.05c0,1.75-1.42,3.16-3.17,3.16h-6.35
	c-1.75,0-3.181-0.62-3.181-2.37v-2.38c0-1.39,0.91-2.55,2.16-2.979c1.01,1.34,2.51,2.189,4.19,2.189c1.68,0,3.18-0.85,4.189-2.189
	c1.26,0.42,2.16,1.59,2.16,2.979v1.59H105.49z M94.38,139.34c0-3.07,2.13-5.55,4.761-5.55c2.619,0,4.75,2.479,4.75,5.55
	c0,3.061-2.131,5.54-4.75,5.54C96.51,144.88,94.38,142.4,94.38,139.34L94.38,139.34z M106.279,146.359
	c0-1.68-1.029-3.102-2.459-3.629c0.55-0.98,0.869-2.143,0.869-3.393c0-3.5-2.489-6.34-5.549-6.34c-3.07,0-5.551,2.84-5.551,6.34
	c0,1.25,0.32,2.41,0.87,3.393c-1.431,0.527-2.46,1.949-2.46,3.629v2.57c0,2.141,1.65,3.068,3.68,3.068h6.92
	c2.03,0,3.68-1.729,3.68-3.857V146.359L106.279,146.359z M109.37,142.73c0.55-0.98,0.88-2.143,0.88-3.393
	c0-3.5-2.49-6.34-5.561-6.34c-0.399,0-0.799,0.063-1.189,0.148c0.561,0.142,1.08,0.369,1.561,0.689c2.449,0.221,4.39,2.58,4.39,5.5
	c0,1.561-0.57,2.95-1.47,3.95c0.22,0.17,0.41,0.36,0.58,0.58c0.109-0.13,0.229-0.261,0.33-0.39c1.25,0.42,2.159,1.59,2.159,2.979
	v1.59c0,1.7-1.36,3.08-3.05,3.15c-0.62,0.5-1.391,0.8-2.221,0.8h2.381c2.029,0,3.67-1.729,3.67-3.858v-1.781
	C111.83,144.68,110.8,143.26,109.37,142.73L109.37,142.73z"/>
<path fill="#6ABD45" d="M14.07,162.279l-5.56,4.451v-7.33c-3.46-2.771-5.66-6.871-5.66-11.461c0-8.299,7.17-15.029,15.99-15.029
	c8.84,0,16,6.73,16,15.029c0,8.301-7.16,15.031-16,15.031C17.18,162.971,15.57,162.73,14.07,162.279L14.07,162.279z M36.7,147.93
	c0-9.35-7.99-16.93-17.86-16.93C8.99,131,1,138.58,1,147.93c0,4.86,2.16,9.23,5.62,12.313v10.25l8.12-6.102
	c1.31,0.299,2.69,0.469,4.1,0.469C28.71,164.859,36.7,157.279,36.7,147.93L36.7,147.93z M39.52,138.16
	c0.771,1.25,1.381,2.59,1.84,3.98c2.92,3.01,4.721,7.01,4.721,11.43c0,5.68-2.971,10.688-7.5,13.76v6.92l-5.52-4.42
	c-1.541,0.41-3.16,0.641-4.84,0.641c-2.98,0-5.781-0.701-8.25-1.91c-0.38,0.01-0.75,0.039-1.14,0.039c-0.86,0-1.7-0.039-2.53-0.119
	c3.31,2.42,7.45,3.859,11.95,3.859c1.42,0,2.79-0.14,4.12-0.41l8.08,6.07v-9.7c4.579-3.44,7.521-8.75,7.521-14.739
	C47.971,147.18,44.63,141.55,39.52,138.16L39.52,138.16z"/>
<path fill="#2D88BA" stroke="#FFFFFF" d="M122.8,144.029V135.8c0-1.659,1.32-3,2.95-3h12.5c1.63,0,2.95,1.341,2.95,3v8.229
	c0,2.201-2.261,2.371-2.95,2.371h-8.02l-4.23,3.8v-3.8h-0.25C125.061,146.4,122.8,146.23,122.8,144.029L122.8,144.029z M125.75,132
	c-2.07,0-3.75,1.7-3.75,3.8v8.229c0,1.91,1.391,2.961,3.2,3.131V152l5.329-4.8h7.721c2.068,0,3.75-1.07,3.75-3.171V135.8
	c0-2.1-1.682-3.8-3.75-3.8H125.75L125.75,132z"/>
<path fill="#FFFFFF" d="M139,152c3.311,0,6-2.689,6-6s-2.689-6-6-6s-6,2.689-6,6S135.689,152,139,152z"/>
<path fill="#FFFFFF" stroke="#2E88B9" d="M138.924,143.372c-0.119,0.007-0.213,0.101-0.213,0.213l0.007,2.608h-2.614
	c-0.112,0-0.207,0.093-0.207,0.205c0.002,0.111,0.096,0.205,0.205,0.205h2.617l-0.008,2.608c0.001,0.112,0.094,0.204,0.205,0.204
	c0.059,0,0.113-0.027,0.148-0.063s0.057-0.084,0.057-0.144l0.007-2.606h2.603c0.059,0,0.113-0.027,0.149-0.063
	c0.035-0.035,0.058-0.084,0.063-0.149c0-0.111-0.092-0.203-0.205-0.203l-2.609,0.008v-2.616
	C139.13,143.465,139.037,143.372,138.924,143.372L138.924,143.372z"/>
<path fill="#045E87" d="M10.878,105.854l-2.367,0.369l-5.615-3.852c-0.533-0.386-1.282-0.267-1.668,0.267
	c-0.388,0.535-0.269,1.283,0.266,1.671l7.95,5.558c0.534,0.387,1.282,0.268,1.67-0.266l5.52-8.151
	c0.387-0.533,0.267-1.283-0.259-1.677c-0.541-0.394-1.29-0.275-1.676,0.26L10.878,105.854z"/>
<path fill="none" stroke="#045E87" stroke-width="2" stroke-linecap="round" d="M48.483,2.626c0,0-23.67,8.063-38.413,36.993
	c-14.741,28.931,1.689,68.627,1.689,68.627"/>
<path fill="none" stroke="#045E87" stroke-width="2" stroke-linecap="round" d="M70.505,2c0,0-6.566,48.31,27.628,84.843
	c34.202,36.54,103.444,34.317,103.444,34.317"/>
<path fill="#045E87" d="M68.987,5.004l2.391,0.153l4.642,4.98c0.438,0.495,1.194,0.54,1.688,0.103
	c0.494-0.437,0.54-1.193,0.102-1.688l-6.56-7.149c-0.438-0.495-1.194-0.541-1.688-0.104l-7.159,6.757
	C61.909,8.495,61.862,9.25,62.3,9.745c0.437,0.494,1.193,0.539,1.688,0.102L68.987,5.004z"/>
<path fill="#737373" d="M85.54,162.034c0-1.101-0.62-1.369-1.42-0.58l-2.82,2.819c-0.4,0.399-0.4,1.021,0,1.42l2.82,2.82
	c0.79,0.788,1.42,0.521,1.42-0.58v-0.899c3.55,0,6.02,1.131,7.8,3.61c-0.71-3.541-2.84-7.07-7.8-7.781V162.034z"/>
<path fill="#FFFFFF" fill-opacity="0.8" d="M105.54,162.027c0-1.101-0.62-1.359-1.42-0.569l-2.82,2.819c-0.4,0.391-0.4,1.021,0,1.41
	l2.82,2.83c0.79,0.778,1.42,0.51,1.42-0.58v-0.899c3.54,0,6.02,1.13,7.79,3.601c-0.7-3.529-2.83-7.07-7.79-7.771V162.027z"/>
<path fill="#2D88BA" d="M200.577,168.787c-0.271-0.26-0.7-0.26-0.97,0l-3.95,3.92l-2.39,2.361l0,0c-1.353,1.34-3.531,1.34-4.881,0
	c-1.352-1.33-1.352-3.49,0-4.83l0,0l2.391-2.361l2-1.988l1.949-1.92c0.811-0.801,2.121-0.801,2.931,0c0.81,0.799,0.81,2.09,0,2.889
	l-1.95,1.932l-3.01,2.988l-1.381,1.361c-0.271,0.271-0.709,0.271-0.979,0c-0.271-0.271-0.271-0.701,0-0.971l1.38-1.359l4.471-4.432
	c0.271-0.27,0.271-0.699,0-0.969c-0.271-0.26-0.698-0.26-0.971,0l-5.85,5.799c-0.811,0.801-0.811,2.102,0,2.9
	c0.8,0.801,2.119,0.801,2.92,0l6.34-6.279l0,0c1.352-1.33,1.352-3.5,0-4.83c-1.34-1.33-3.529-1.33-4.869,0h-0.011l-6.33,6.279l0,0
	c-1.89,1.861-1.89,4.891,0,6.76c1.88,1.861,4.94,1.861,6.819,0l6.341-6.279C200.848,169.488,200.848,169.059,200.577,168.787
	L200.577,168.787z"/>
<path fill="#2D88BA" d="M209,169h8v-1h-8V169z M219,176h-12v-12h2.5v2h7v-2h2.5V176L219,176z M210.5,163h1.5v-0.5
	c0-0.279,0.221-0.5,0.5-0.5h1c0.279,0,0.5,0.221,0.5,0.5v0.5h1.5v2h-5V163L210.5,163z M216.5,163v-1H215c0-0.55-0.45-1-1-1h-2
	c-0.55,0-1,0.45-1,1h-1.5v1H206v14h14v-14H216.5L216.5,163z M209,171h8v-1h-8V171z M209,173h5v-1h-5V173z"/>
<path fill="#2D88BA" d="M236,169v1c0,2.21-1.79,4-4,4h-1c-2.21,0-4-1.79-4-4v-1h-1v1c0,2.76,2.24,5,5,5v1h-0.5
	c-0.279,0-0.5,0.23-0.5,0.5c0,0.279,0.221,0.5,0.5,0.5h2c0.279,0,0.5-0.221,0.5-0.5c0-0.27-0.221-0.5-0.5-0.5H232v-1
	c2.76,0,5-2.24,5-5v-1H236L236,169z M229,164.5c0-1.38,1.12-2.5,2.5-2.5s2.5,1.12,2.5,2.5v5c0,1.38-1.12,2.5-2.5,2.5
	s-2.5-1.12-2.5-2.5V164.5L229,164.5z M231.5,173c1.93,0,3.5-1.57,3.5-3.5v-5c0-1.93-1.57-3.5-3.5-3.5s-3.5,1.57-3.5,3.5v5
	C228,171.43,229.57,173,231.5,173L231.5,173z"/>
<path fill="none" stroke="#2D88BA" d="M166.5,164.49c0-1.1,0.891-1.99,1.99-1.99h11.02c1.1,0,1.99,0.891,1.99,1.99v11.02
	c0,1.1-0.891,1.99-1.99,1.99h-11.02c-1.1,0-1.99-0.891-1.99-1.99V164.49z"/>
<path fill="none" stroke="#2D88BA" d="M166.5,164.5c0-1.1,0.891-2,1.99-2h11.02c1.1,0,1.99,0.891,1.99,2v3.25h-15V164.5L166.5,164.5
	z"/>
<path fill="#2D88BA" d="M170.439,171.12c0.521,0,0.938-0.41,0.938-0.931c0-0.521-0.42-0.939-0.938-0.939
	c-0.521,0-0.939,0.42-0.939,0.939C169.5,170.71,169.92,171.12,170.439,171.12z"/>
<path fill="#2D88BA" d="M170.439,174.13c0.521,0,0.938-0.42,0.938-0.94c0-0.52-0.42-0.938-0.938-0.938
	c-0.521,0-0.939,0.42-0.939,0.938C169.5,173.71,169.92,174.13,170.439,174.13z"/>
<path fill="#2D88BA" d="M173.811,171.12c0.521,0,0.939-0.41,0.939-0.931c0-0.521-0.42-0.939-0.939-0.939
	c-0.521,0-0.931,0.42-0.931,0.939C172.88,170.71,173.29,171.12,173.811,171.12z"/>
<path fill="#2D88BA" d="M173.811,174.13c0.521,0,0.939-0.42,0.939-0.94c0-0.52-0.42-0.938-0.939-0.938
	c-0.521,0-0.931,0.42-0.931,0.938C172.88,173.71,173.29,174.13,173.811,174.13z"/>
<path fill="#2D88BA" d="M177.189,171.12c0.521,0,0.938-0.41,0.938-0.931c0-0.521-0.42-0.939-0.938-0.939
	c-0.521,0-0.939,0.42-0.939,0.939C176.25,170.71,176.67,171.12,177.189,171.12z"/>
<path fill="#2D88BA" d="M170.18,162.12c0-0.341,0.28-0.62,0.62-0.62l0,0c0.351,0,0.62,0.279,0.62,0.62v1.56
	c0,0.34-0.27,0.62-0.62,0.62l0,0c-0.34,0-0.62-0.28-0.62-0.62V162.12z"/>
<path fill="#2D88BA" d="M176.721,162.12c0-0.341,0.279-0.62,0.619-0.62l0,0c0.35,0,0.631,0.279,0.631,0.62v1.56
	c0,0.34-0.281,0.62-0.631,0.62l0,0c-0.34,0-0.619-0.28-0.619-0.62V162.12z"/>
<path fill="#FFFFFF" d="M178,178.48c2.48,0,4.5-2.01,4.5-4.49s-2.02-4.49-4.5-4.49c-2.49,0-4.5,2.01-4.5,4.49
	S175.51,178.48,178,178.48z"/>
<path fill="#2D88BA" stroke="#2D88BA" stroke-width="0.3" d="M178,177.05c-1.689,0-3.061-1.37-3.061-3.06
	c0-1.69,1.371-3.051,3.061-3.051s3.061,1.358,3.061,3.051C181.061,175.68,179.689,177.05,178,177.05L178,177.05z M178,170.5
	c-1.93,0-3.5,1.561-3.5,3.49c0,1.929,1.57,3.49,3.5,3.49s3.5-1.563,3.5-3.49C181.5,172.061,179.93,170.5,178,170.5L178,170.5z
	 M179.75,173.99H178v-1.74c0-0.12-0.1-0.221-0.221-0.221c-0.119,0-0.219,0.101-0.219,0.221v1.96l0,0c0,0.05,0.02,0.09,0.049,0.13
	c0.041,0.051,0.101,0.09,0.17,0.09h0.011h1.96c0.12,0,0.221-0.1,0.221-0.22S179.87,173.99,179.75,173.99L179.75,173.99z"/>
<path fill="#FFFFFF" d="M200.577,188.787c-0.271-0.26-0.7-0.26-0.97,0l-3.95,3.92l-2.39,2.361l0,0c-1.353,1.34-3.531,1.34-4.881,0
	c-1.352-1.33-1.352-3.49,0-4.83l0,0l2.391-2.361l2-1.988l1.949-1.92c0.811-0.801,2.121-0.801,2.931,0c0.81,0.799,0.81,2.09,0,2.889
	l-1.95,1.932l-3.01,2.988l-1.381,1.361c-0.271,0.271-0.709,0.271-0.979,0c-0.271-0.271-0.271-0.701,0-0.971l1.38-1.359l4.471-4.432
	c0.271-0.27,0.271-0.699,0-0.969c-0.271-0.26-0.698-0.26-0.971,0l-5.85,5.799c-0.811,0.801-0.811,2.102,0,2.9
	c0.8,0.801,2.119,0.801,2.92,0l6.34-6.279l0,0c1.352-1.33,1.352-3.5,0-4.83c-1.34-1.33-3.529-1.33-4.869,0h-0.011l-6.33,6.279l0,0
	c-1.89,1.861-1.89,4.891,0,6.76c1.88,1.861,4.94,1.861,6.819,0l6.341-6.279C200.848,189.488,200.848,189.059,200.577,188.787
	L200.577,188.787z"/>
<path fill="#2A87B9" stroke="#EEEEEE" stroke-width="0.5" d="M238.91,75.589c-0.6,0-1.09,0.479-1.09,1.091v4.359
	c0,0.6-0.49,1.09-1.09,1.09H219.27c-0.6,0-1.09-0.49-1.09-1.09V76.68c0-0.611-0.49-1.091-1.09-1.091S216,76.068,216,76.68v4.359
	c0,1.811,1.46,3.27,3.27,3.27h17.461c1.811,0,3.271-1.459,3.271-3.27V76.68C240,76.068,239.51,75.589,238.91,75.589L238.91,75.589z"
	/>
<path fill="#2A87B9" stroke="#EEEEEE" stroke-width="0.5" d="M234.17,68.254c0.43-0.42,0.43-1.109,0-1.539l-5.4-5.4
	c-0.42-0.42-1.119-0.42-1.539,0l-5.399,5.4c-0.431,0.43-0.431,1.119,0,1.539c0.431,0.43,1.12,0.43,1.54,0l3.54-3.529v12.64
	c0,0.601,0.489,1.09,1.09,1.09s1.09-0.489,1.09-1.09v-12.64l3.54,3.529C233.05,68.684,233.75,68.684,234.17,68.254L234.17,68.254z"
	/>
<path fill="#2A87B9" stroke="#2A87B9" stroke-width="0.5" d="M223.84,96.29c0-2.38,1.93-4.319,4.32-4.319
	c2.38,0,4.311,1.939,4.311,4.319v7.681c0,2.379-1.931,4.309-4.311,4.309c-2.391,0-4.32-1.93-4.32-4.309V96.29L223.84,96.29z
	 M228.16,109.24c2.91,0,5.27-2.391,5.27-5.32v-7.6c0-2.94-2.359-5.32-5.27-5.32c-2.92,0-5.29,2.38-5.29,5.32v7.6
	C222.87,106.85,225.24,109.24,228.16,109.24L228.16,109.24z M235.34,102.52v2.601c0,3.33-2.859,6.029-6.39,6.029h-1.591
	c-3.529,0-6.389-2.699-6.389-6.029v-2.601H220v2.11c0,4.14,3.32,7.5,7.41,7.5h0.27v1.91h-1.438c-0.271,0-0.479,0.22-0.479,0.479
	c0,0.258,0.211,0.479,0.479,0.479h3.829c0.271,0,0.479-0.222,0.479-0.479c0-0.26-0.21-0.479-0.479-0.479h-1.439v-1.91h0.262
	c4.1,0,7.42-3.36,7.42-7.5v-2.11H235.34L235.34,102.52z"/>
<path fill="#FFFFFF" d="M257.982,161.302c-0.381-0.399-1-0.399-1.381-0.01l-9.16,9.431l-4.439-4.57c-0.391-0.4-1.01-0.391-1.391,0
	l-0.319,0.33c-0.39,0.399-0.39,1.039,0,1.43l5.46,5.631c0.381,0.389,1,0.389,1.391-0.011l10.16-10.47
	c0.389-0.392,0.389-1.041,0-1.431L257.982,161.302z"/>
<path fill="#FF8D00" stroke="#FFFFFF" stroke-width="1.5" d="M246.48,62.425c1.129-1.9,2.97-1.9,4.1,0l4.99,8.36
	c1.13,1.899,0.25,3.44-1.95,3.44h-10.181c-2.209,0-3.069-1.541-1.949-3.44L246.48,62.425z"/>
<path fill="#FFFFFF" d="M247.641,71.475c0-0.1,0.03-0.211,0.069-0.32c0.041-0.109,0.11-0.18,0.181-0.25
	c0.069-0.08,0.18-0.15,0.28-0.189c0.108-0.031,0.22-0.07,0.358-0.07c0.141,0,0.25,0.039,0.359,0.07
	c0.102,0.039,0.211,0.109,0.281,0.189c0.068,0.07,0.139,0.141,0.18,0.25c0.039,0.109,0.07,0.221,0.07,0.32
	c0,0.109-0.031,0.22-0.07,0.33c-0.041,0.109-0.109,0.18-0.18,0.25c-0.07,0.08-0.182,0.149-0.281,0.189
	c-0.109,0.03-0.219,0.07-0.359,0.07c-0.139,0-0.25-0.04-0.358-0.07c-0.101-0.04-0.181-0.109-0.28-0.189
	c-0.07-0.07-0.14-0.141-0.181-0.25C247.671,71.695,247.641,71.625,247.641,71.475L247.641,71.475z M249.13,69.815h-1.278
	l-0.181-5.48h1.64L249.13,69.815L249.13,69.815z"/>
<path fill="#2A87B9" stroke="#2A87B9" stroke-width="0.5" d="M3.8,185.5c0-2.15,1.48-3.9,3.3-3.9c1.82,0,3.3,1.75,3.3,3.9
	s-1.48,3.9-3.3,3.9C5.28,189.4,3.8,187.65,3.8,185.5L3.8,185.5z M4.78,189.4h0.38c0.58,0.379,1.23,0.6,1.94,0.6s1.36-0.221,1.94-0.6
	h0.38c0.801,0,1.5,0.42,1.88,1.05h0.681c-0.391-0.88-1.24-1.521-2.26-1.63c0.779-0.83,1.27-2.01,1.27-3.32c0-2.49-1.74-4.5-3.89-4.5
	s-3.89,2.01-3.89,4.5c0,1.311,0.49,2.49,1.27,3.32C3.08,188.96,2,190.109,2,191.5v1.8c0,1.49,1.25,2.7,2.78,2.7H9.2v-0.6H4.78
	c-1.2,0-2.18-0.94-2.18-2.102v-1.8C2.6,190.34,3.58,189.4,4.78,189.4L4.78,189.4z M12.811,193.439v-1.789H12.19v1.789H10.4v0.621
	h1.789v1.789h0.621v-1.789h1.79v-0.621H12.811L12.811,193.439z"/>
<path fill="#2A87B9" stroke="#EEEEEE" stroke-width="0.5" d="M35.32,190.42c-0.381,0-0.68,0.311-0.68,0.68v2.73
	c0,0.38-0.311,0.68-0.69,0.68h-10.9c-0.38,0-0.69-0.3-0.69-0.68v-2.73c0-0.369-0.3-0.68-0.68-0.68c-0.37,0-0.68,0.311-0.68,0.68
	v2.73c0,1.13,0.92,2.04,2.05,2.04h10.9c1.13,0,2.05-0.91,2.05-2.04v-2.73C36,190.73,35.689,190.42,35.32,190.42L35.32,190.42z"/>
<path fill="#2A87B9" stroke="#EEEEEE" stroke-width="0.5" d="M32.359,188.37c-0.27-0.271-0.699-0.271-0.969,0l-2.211,2.21v-7.9
	c0-0.369-0.3-0.68-0.68-0.68s-0.68,0.311-0.68,0.68v7.9l-2.21-2.21c-0.27-0.271-0.7-0.271-0.97,0c-0.26,0.271-0.26,0.7,0,0.96
	l3.38,3.38c0.26,0.271,0.7,0.271,0.96,0l3.379-3.38C32.62,189.07,32.62,188.641,32.359,188.37L32.359,188.37z"/>
<path fill="#2A87B9" d="M95.408,182.188c-0.25-0.25-0.649-0.25-0.899,0l-5.711,5.711l-5.71-5.711c-0.25-0.25-0.65-0.25-0.9,0
	c-0.25,0.239-0.25,0.649,0,0.891l5.71,5.721l-5.71,5.709c-0.25,0.25-0.25,0.65,0,0.9c0.12,0.13,0.28,0.189,0.45,0.189
	c0.16,0,0.32-0.061,0.45-0.189l5.71-5.711l5.711,5.711c0.129,0.13,0.289,0.189,0.449,0.189c0.17,0,0.33-0.061,0.45-0.189
	c0.25-0.25,0.25-0.65,0-0.9l-5.71-5.709l5.71-5.721C95.658,182.837,95.658,182.427,95.408,182.188L95.408,182.188z"/>
<path fill="#2A87B9" stroke="#2A87B9" stroke-width="0.7" d="M75.76,185.887c-0.09-0.091-0.23-0.091-0.32,0l-2.029,2.02l-2.02-2.02
	c-0.091-0.091-0.24-0.091-0.32,0c-0.09,0.079-0.09,0.229,0,0.319l2.02,2.021l-2.02,2.028c-0.09,0.091-0.09,0.229,0,0.32
	c0.039,0.051,0.1,0.069,0.16,0.069c0.049,0,0.109-0.02,0.16-0.069l2.02-2.029l2.029,2.029c0.051,0.051,0.101,0.069,0.16,0.069
	c0.061,0,0.121-0.02,0.16-0.069c0.09-0.091,0.09-0.229,0-0.32l-2.029-2.028l2.029-2.021C75.85,186.115,75.85,185.966,75.76,185.887
	L75.76,185.887z"/>
<path fill="none" stroke="#2A87B9" d="M63.96,190.585h-2.07c-0.33,0-0.59-0.26-0.59-0.59v-3.55c0-0.33,0.26-0.602,0.59-0.602h2.07"
	/>
<path fill="none" stroke="#2A87B9" d="M63.84,190.415c-0.1-0.08-0.17-0.3-0.17-0.49v-3.409c0-0.189,0.07-0.41,0.17-0.5l3.76-3.74
	c0.48-0.488,1.1-0.31,1.1,0.41v10.961c0,0.77-0.56,1.069-1.12,0.5L63.84,190.415L63.84,190.415z"/>
<path fill="#2A87B9" stroke="#2A87B9" stroke-width="0.5" d="M47.5,195.34c-3.78,0-6.85-3.061-6.85-6.84s3.07-6.85,6.85-6.85
	c3.779,0,6.85,3.07,6.85,6.85S51.279,195.34,47.5,195.34L47.5,195.34z M47.5,181c-4.14,0-7.5,3.359-7.5,7.5s3.36,7.5,7.5,7.5
	c4.141,0,7.5-3.359,7.5-7.5S51.641,181,47.5,181L47.5,181z M50.76,188.17h-6.52c-0.18,0-0.33,0.15-0.33,0.33s0.15,0.33,0.33,0.33
	h6.52c0.18,0,0.33-0.15,0.33-0.33S50.939,188.17,50.76,188.17L50.76,188.17z"/>
<path fill="none" stroke="#333333" stroke-width="1.2" d="M104.02,191.736h-2.35c-0.37,0-0.67-0.301-0.67-0.67v-4.03
	c0-0.37,0.3-0.67,0.67-0.67h2.35"/>
<path fill="none" stroke="#333333" stroke-width="1.2" d="M103.88,191.547c-0.11-0.111-0.2-0.352-0.2-0.57v-3.859
	c0-0.21,0.09-0.471,0.2-0.569l4.26-4.239c0.539-0.552,1.25-0.341,1.25,0.469v12.42c0,0.881-0.641,1.211-1.271,0.57L103.88,191.547
	L103.88,191.547z"/>
<path fill="#A3A3A3" stroke="#333333" stroke-width="0.7" d="M115.53,186.816c-0.091-0.09-0.24-0.09-0.33,0l-2.04,2.039l-2.04-2.039
	c-0.09-0.09-0.229-0.09-0.319,0c-0.091,0.09-0.091,0.229,0,0.32l2.039,2.038l-2.039,2.041c-0.091,0.091-0.091,0.229,0,0.319
	c0.049,0.05,0.1,0.07,0.159,0.07s0.12-0.021,0.16-0.07l2.04-2.04l2.04,2.04c0.05,0.05,0.11,0.07,0.16,0.07
	c0.06,0,0.12-0.021,0.17-0.07c0.08-0.09,0.08-0.229,0-0.319l-2.05-2.041l2.05-2.038C115.61,187.047,115.61,186.906,115.53,186.816
	L115.53,186.816z"/>
<path fill="#36373C" d="M135.408,182.188c-0.25-0.25-0.65-0.25-0.9,0l-5.71,5.711l-5.71-5.711c-0.25-0.25-0.65-0.25-0.9,0
	c-0.25,0.239-0.25,0.649,0,0.891l5.71,5.721l-5.71,5.709c-0.25,0.25-0.25,0.65,0,0.9c0.12,0.13,0.28,0.189,0.45,0.189
	c0.16,0,0.32-0.061,0.45-0.189l5.71-5.711l5.71,5.711c0.129,0.13,0.289,0.189,0.449,0.189c0.17,0,0.33-0.061,0.451-0.189
	c0.25-0.25,0.25-0.65,0-0.9l-5.71-5.709l5.71-5.721C135.658,182.837,135.658,182.427,135.408,182.188L135.408,182.188z"/>
<path fill="#025D86" d="M151.502,181.148c-0.189-0.198-0.51-0.198-0.699,0l-4.479,4.479l-4.471-4.479
	c-0.201-0.198-0.511-0.198-0.711,0c-0.188,0.189-0.188,0.511,0,0.701l4.48,4.479l-4.48,4.48c-0.188,0.188-0.188,0.51,0,0.698
	c0.102,0.103,0.23,0.149,0.352,0.149c0.13,0,0.26-0.051,0.359-0.149l4.471-4.47l4.479,4.47c0.1,0.103,0.219,0.149,0.35,0.149
	c0.132,0,0.262-0.051,0.352-0.149c0.2-0.188,0.2-0.51,0-0.698l-4.47-4.48l4.47-4.479
	C151.703,181.659,151.703,181.34,151.502,181.148L151.502,181.148z"/>
<path fill="#09547E" d="M176.141,188.907v-5.714c0-0.658-0.498-1.193-1.117-1.193s-1.117,0.535-1.117,1.193v5.714h-5.713
	c-0.658,0-1.193,0.505-1.193,1.116c0,0.62,0.535,1.125,1.193,1.125h5.713v5.713c0,0.658,0.498,1.193,1.117,1.193
	s1.117-0.535,1.117-1.193v-5.713h5.713c0.658,0,1.193-0.505,1.193-1.125c0-0.611-0.535-1.116-1.193-1.116H176.141z"/>
<path fill="#FFFFFF" d="M216.141,188.907v-5.714c0-0.658-0.498-1.193-1.117-1.193s-1.117,0.535-1.117,1.193v5.714h-5.713
	c-0.658,0-1.193,0.505-1.193,1.116c0,0.62,0.535,1.125,1.193,1.125h5.713v5.713c0,0.658,0.498,1.193,1.117,1.193
	s1.117-0.535,1.117-1.193v-5.713h5.713c0.658,0,1.193-0.505,1.193-1.125c0-0.611-0.535-1.116-1.193-1.116H216.141z"/>
</svg>
