<?xml version="1.0" encoding="utf-8"?>
<!-- Generator: Avocode 2.4.3-3630f5a - http://avocode.com -->
<svg height="16" width="16" xmlns:xlink="http://www.w3.org/1999/xlink" xmlns="http://www.w3.org/2000/svg" viewBox="0 0 16 16">
    <path stroke-linejoin="miter" stroke-linecap="butt" stroke-width="1" stroke="#f34d30" fill="#f34d30" fill-rule="evenodd" d="M 8 15 C 11.87 15 15 11.87 15 8 C 15 4.13 11.87 1 8 1 C 4.13 1 1 4.13 1 8 C 1 11.87 4.13 15 8 15 Z M 8 15" />
    <path fill="#ffffff" fill-rule="evenodd" d="M 7 11.14 C 7 11.03 7.04 10.92 7.07 10.81 C 7.11 10.71 7.18 10.63 7.25 10.56 C 7.32 10.49 7.43 10.42 7.54 10.38 C 7.64 10.34 7.75 10.31 7.89 10.31 C 8.04 10.31 8.14 10.34 8.25 10.38 C 8.36 10.42 8.47 10.49 8.53 10.56 C 8.61 10.64 8.68 10.71 8.71 10.81 C 8.75 10.92 8.79 11.03 8.79 11.14 C 8.79 11.25 8.75 11.36 8.71 11.47 C 8.68 11.58 8.61 11.65 8.53 11.72 C 8.46 11.79 8.36 11.87 8.25 11.9 C 8.14 11.94 8.04 11.98 7.89 11.98 C 7.75 11.98 7.65 11.94 7.54 11.9 C 7.43 11.87 7.36 11.79 7.25 11.72 C 7.18 11.65 7.11 11.58 7.07 11.47 C 7.04 11.36 7 11.29 7 11.14 L 7 11.14 Z M 8.5 9.47 L 7.22 9.47 L 7.04 4 L 8.67 4 L 8.5 9.47 L 8.5 9.47 Z M 8.5 9.47" />
</svg>